solid OpenSCAD_Model
  facet normal -0.9987954562051725 -0.04906767432741532 0
    outer loop
      vertex -5.160369453344394 -0.1960342806591212 0
      vertex -5.17 0 10
      vertex -5.17 0 0
    endloop
  endfacet
  facet normal -0.9987954562051725 -0.04906767432741532 0
    outer loop
      vertex -5.160369453344394 -0.1960342806591212 0
      vertex -5.160369453344394 -0.1960342806591212 10
      vertex -5.17 0 10
    endloop
  endfacet
  facet normal -0.9891765099647806 -0.1467304744553646 0
    outer loop
      vertex -5.131570560806461 -0.3901806440322565 0
      vertex -5.160369453344394 -0.1960342806591212 10
      vertex -5.160369453344394 -0.1960342806591212 0
    endloop
  endfacet
  facet normal -0.9891765099647806 -0.1467304744553646 0
    outer loop
      vertex -5.131570560806461 -0.3901806440322565 0
      vertex -5.131570560806461 -0.3901806440322565 10
      vertex -5.160369453344394 -0.1960342806591212 10
    endloop
  endfacet
  facet normal -0.9700312531945434 -0.24298017990326626 0
    outer loop
      vertex -5.083880671464417 -0.5805693545089247 0
      vertex -5.131570560806461 -0.3901806440322565 10
      vertex -5.131570560806461 -0.3901806440322565 0
    endloop
  endfacet
  facet normal -0.9700312531945434 -0.24298017990326626 0
    outer loop
      vertex -5.083880671464417 -0.5805693545089247 0
      vertex -5.083880671464417 -0.5805693545089247 10
      vertex -5.131570560806461 -0.3901806440322565 10
    endloop
  endfacet
  facet normal -0.9415440651830224 -0.33688985339221567 0
    outer loop
      vertex -5.017759065022574 -0.7653668647301796 0
      vertex -5.083880671464417 -0.5805693545089247 10
      vertex -5.083880671464417 -0.5805693545089247 0
    endloop
  endfacet
  facet normal -0.9415440651830224 -0.33688985339221567 0
    outer loop
      vertex -5.017759065022574 -0.7653668647301796 0
      vertex -5.017759065022574 -0.7653668647301796 10
      vertex -5.083880671464417 -0.5805693545089247 10
    endloop
  endfacet
  facet normal -0.9039892931234421 -0.42755509343028464 0
    outer loop
      vertex -4.93384252869671 -0.9427934736519953 0
      vertex -5.017759065022574 -0.7653668647301796 10
      vertex -5.017759065022574 -0.7653668647301796 0
    endloop
  endfacet
  facet normal -0.9039892931234421 -0.42755509343028464 0
    outer loop
      vertex -4.93384252869671 -0.9427934736519953 0
      vertex -4.93384252869671 -0.9427934736519953 10
      vertex -5.017759065022574 -0.7653668647301796 10
    endloop
  endfacet
  facet normal -0.8577286100002729 -0.5141027441932204 0
    outer loop
      vertex -4.832939224605091 -1.1111404660392044 0
      vertex -4.93384252869671 -0.9427934736519953 10
      vertex -4.93384252869671 -0.9427934736519953 0
    endloop
  endfacet
  facet normal -0.8577286100002729 -0.5141027441932204 0
    outer loop
      vertex -4.832939224605091 -1.1111404660392044 0
      vertex -4.832939224605091 -1.1111404660392044 10
      vertex -4.93384252869671 -0.9427934736519953 10
    endloop
  endfacet
  facet normal -0.803207531480644 -0.5956993044924344 0
    outer loop
      vertex -4.716020906725474 -1.268786568327291 0
      vertex -4.832939224605091 -1.1111404660392044 10
      vertex -4.832939224605091 -1.1111404660392044 0
    endloop
  endfacet
  facet normal -0.803207531480644 -0.5956993044924344 0
    outer loop
      vertex -4.716020906725474 -1.268786568327291 0
      vertex -4.716020906725474 -1.268786568327291 10
      vertex -4.832939224605091 -1.1111404660392044 10
    endloop
  endfacet
  facet normal -0.7409511253549594 -0.671558954847018 0
    outer loop
      vertex -4.584213562373095 -1.4142135623730951 0
      vertex -4.716020906725474 -1.268786568327291 10
      vertex -4.716020906725474 -1.268786568327291 0
    endloop
  endfacet
  facet normal -0.7409511253549594 -0.671558954847018 0
    outer loop
      vertex -4.584213562373095 -1.4142135623730951 0
      vertex -4.584213562373095 -1.4142135623730951 10
      vertex -4.716020906725474 -1.268786568327291 10
    endloop
  endfacet
  facet normal -0.6715589548470197 -0.7409511253549579 0
    outer loop
      vertex -4.438786568327291 -1.546020906725474 0
      vertex -4.584213562373095 -1.4142135623730951 10
      vertex -4.584213562373095 -1.4142135623730951 0
    endloop
  endfacet
  facet normal -0.6715589548470197 -0.7409511253549579 0
    outer loop
      vertex -4.438786568327291 -1.546020906725474 0
      vertex -4.438786568327291 -1.546020906725474 10
      vertex -4.584213562373095 -1.4142135623730951 10
    endloop
  endfacet
  facet normal -0.5956993044924318 -0.8032075314806459 0
    outer loop
      vertex -4.281140466039204 -1.6629392246050905 0
      vertex -4.438786568327291 -1.546020906725474 10
      vertex -4.438786568327291 -1.546020906725474 0
    endloop
  endfacet
  facet normal -0.5956993044924318 -0.8032075314806459 0
    outer loop
      vertex -4.281140466039204 -1.6629392246050905 0
      vertex -4.281140466039204 -1.6629392246050905 10
      vertex -4.438786568327291 -1.546020906725474 10
    endloop
  endfacet
  facet normal -0.5141027441932213 -0.8577286100002722 0
    outer loop
      vertex -4.112793473651995 -1.76384252869671 0
      vertex -4.281140466039204 -1.6629392246050905 10
      vertex -4.281140466039204 -1.6629392246050905 0
    endloop
  endfacet
  facet normal -0.5141027441932213 -0.8577286100002722 0
    outer loop
      vertex -4.112793473651995 -1.76384252869671 0
      vertex -4.112793473651995 -1.76384252869671 10
      vertex -4.281140466039204 -1.6629392246050905 10
    endloop
  endfacet
  facet normal -0.4275550934302827 -0.903989293123443 0
    outer loop
      vertex -3.9353668647301796 -1.8477590650225735 0
      vertex -4.112793473651995 -1.76384252869671 10
      vertex -4.112793473651995 -1.76384252869671 0
    endloop
  endfacet
  facet normal -0.4275550934302827 -0.903989293123443 0
    outer loop
      vertex -3.9353668647301796 -1.8477590650225735 0
      vertex -3.9353668647301796 -1.8477590650225735 10
      vertex -4.112793473651995 -1.76384252869671 10
    endloop
  endfacet
  facet normal -0.33688985339221933 -0.9415440651830211 0
    outer loop
      vertex -3.7505693545089245 -1.9138806714644176 0
      vertex -3.9353668647301796 -1.8477590650225735 10
      vertex -3.9353668647301796 -1.8477590650225735 0
    endloop
  endfacet
  facet normal -0.33688985339221933 -0.9415440651830211 0
    outer loop
      vertex -3.7505693545089245 -1.9138806714644176 0
      vertex -3.7505693545089245 -1.9138806714644176 10
      vertex -3.9353668647301796 -1.8477590650225735 10
    endloop
  endfacet
  facet normal -0.24298017990326415 -0.9700312531945439 0
    outer loop
      vertex -3.5601806440322563 -1.9615705608064609 0
      vertex -3.7505693545089245 -1.9138806714644176 10
      vertex -3.7505693545089245 -1.9138806714644176 0
    endloop
  endfacet
  facet normal -0.24298017990326415 -0.9700312531945439 0
    outer loop
      vertex -3.5601806440322563 -1.9615705608064609 0
      vertex -3.5601806440322563 -1.9615705608064609 10
      vertex -3.7505693545089245 -1.9138806714644176 10
    endloop
  endfacet
  facet normal -0.14673047445536255 -0.9891765099647808 0
    outer loop
      vertex -3.3660342806591212 -1.9903694533443939 0
      vertex -3.5601806440322563 -1.9615705608064609 10
      vertex -3.5601806440322563 -1.9615705608064609 0
    endloop
  endfacet
  facet normal -0.14673047445536255 -0.9891765099647808 0
    outer loop
      vertex -3.3660342806591212 -1.9903694533443939 0
      vertex -3.3660342806591212 -1.9903694533443939 10
      vertex -3.5601806440322563 -1.9615705608064609 10
    endloop
  endfacet
  facet normal -0.04906767432741755 -0.9987954562051724 0
    outer loop
      vertex -3.17 -2 0
      vertex -3.3660342806591212 -1.9903694533443939 10
      vertex -3.3660342806591212 -1.9903694533443939 0
    endloop
  endfacet
  facet normal -0.04906767432741755 -0.9987954562051724 0
    outer loop
      vertex -3.17 -2 0
      vertex -3.17 -2 10
      vertex -3.3660342806591212 -1.9903694533443939 10
    endloop
  endfacet
  facet normal 0 -1 0
    outer loop
      vertex 3.17 -2 0
      vertex -3.17 -2 10
      vertex -3.17 -2 0
    endloop
  endfacet
  facet normal 0 -1 0
    outer loop
      vertex 3.17 -2 0
      vertex 3.17 -2 10
      vertex -3.17 -2 10
    endloop
  endfacet
  facet normal 0.04906767432741755 -0.9987954562051724 0
    outer loop
      vertex 3.3660342806591212 -1.9903694533443939 0
      vertex 3.17 -2 10
      vertex 3.17 -2 0
    endloop
  endfacet
  facet normal 0.04906767432741755 -0.9987954562051724 0
    outer loop
      vertex 3.3660342806591212 -1.9903694533443939 0
      vertex 3.3660342806591212 -1.9903694533443939 10
      vertex 3.17 -2 10
    endloop
  endfacet
  facet normal 0.14673047445536255 -0.9891765099647808 0
    outer loop
      vertex 3.5601806440322563 -1.9615705608064609 0
      vertex 3.3660342806591212 -1.9903694533443939 10
      vertex 3.3660342806591212 -1.9903694533443939 0
    endloop
  endfacet
  facet normal 0.14673047445536255 -0.9891765099647808 0
    outer loop
      vertex 3.5601806440322563 -1.9615705608064609 0
      vertex 3.5601806440322563 -1.9615705608064609 10
      vertex 3.3660342806591212 -1.9903694533443939 10
    endloop
  endfacet
  facet normal 0.24298017990326415 -0.9700312531945439 0
    outer loop
      vertex 3.7505693545089245 -1.9138806714644176 0
      vertex 3.5601806440322563 -1.9615705608064609 10
      vertex 3.5601806440322563 -1.9615705608064609 0
    endloop
  endfacet
  facet normal 0.24298017990326415 -0.9700312531945439 0
    outer loop
      vertex 3.7505693545089245 -1.9138806714644176 0
      vertex 3.7505693545089245 -1.9138806714644176 10
      vertex 3.5601806440322563 -1.9615705608064609 10
    endloop
  endfacet
  facet normal 0.33688985339221933 -0.9415440651830211 0
    outer loop
      vertex 3.9353668647301796 -1.8477590650225735 0
      vertex 3.7505693545089245 -1.9138806714644176 10
      vertex 3.7505693545089245 -1.9138806714644176 0
    endloop
  endfacet
  facet normal 0.33688985339221933 -0.9415440651830211 0
    outer loop
      vertex 3.9353668647301796 -1.8477590650225735 0
      vertex 3.9353668647301796 -1.8477590650225735 10
      vertex 3.7505693545089245 -1.9138806714644176 10
    endloop
  endfacet
  facet normal 0.4275550934302827 -0.903989293123443 0
    outer loop
      vertex 4.112793473651995 -1.76384252869671 0
      vertex 3.9353668647301796 -1.8477590650225735 10
      vertex 3.9353668647301796 -1.8477590650225735 0
    endloop
  endfacet
  facet normal 0.4275550934302827 -0.903989293123443 0
    outer loop
      vertex 4.112793473651995 -1.76384252869671 0
      vertex 4.112793473651995 -1.76384252869671 10
      vertex 3.9353668647301796 -1.8477590650225735 10
    endloop
  endfacet
  facet normal 0.5141027441932213 -0.8577286100002722 0
    outer loop
      vertex 4.281140466039204 -1.6629392246050905 0
      vertex 4.112793473651995 -1.76384252869671 10
      vertex 4.112793473651995 -1.76384252869671 0
    endloop
  endfacet
  facet normal 0.5141027441932213 -0.8577286100002722 0
    outer loop
      vertex 4.281140466039204 -1.6629392246050905 0
      vertex 4.281140466039204 -1.6629392246050905 10
      vertex 4.112793473651995 -1.76384252869671 10
    endloop
  endfacet
  facet normal 0.5956993044924318 -0.8032075314806459 0
    outer loop
      vertex 4.438786568327291 -1.546020906725474 0
      vertex 4.281140466039204 -1.6629392246050905 10
      vertex 4.281140466039204 -1.6629392246050905 0
    endloop
  endfacet
  facet normal 0.5956993044924318 -0.8032075314806459 0
    outer loop
      vertex 4.438786568327291 -1.546020906725474 0
      vertex 4.438786568327291 -1.546020906725474 10
      vertex 4.281140466039204 -1.6629392246050905 10
    endloop
  endfacet
  facet normal 0.6715589548470197 -0.7409511253549579 0
    outer loop
      vertex 4.584213562373095 -1.4142135623730951 0
      vertex 4.438786568327291 -1.546020906725474 10
      vertex 4.438786568327291 -1.546020906725474 0
    endloop
  endfacet
  facet normal 0.6715589548470197 -0.7409511253549579 0
    outer loop
      vertex 4.584213562373095 -1.4142135623730951 0
      vertex 4.584213562373095 -1.4142135623730951 10
      vertex 4.438786568327291 -1.546020906725474 10
    endloop
  endfacet
  facet normal 0.7409511253549594 -0.671558954847018 0
    outer loop
      vertex 4.716020906725474 -1.268786568327291 0
      vertex 4.584213562373095 -1.4142135623730951 10
      vertex 4.584213562373095 -1.4142135623730951 0
    endloop
  endfacet
  facet normal 0.7409511253549594 -0.671558954847018 0
    outer loop
      vertex 4.716020906725474 -1.268786568327291 0
      vertex 4.716020906725474 -1.268786568327291 10
      vertex 4.584213562373095 -1.4142135623730951 10
    endloop
  endfacet
  facet normal 0.803207531480644 -0.5956993044924344 0
    outer loop
      vertex 4.832939224605091 -1.1111404660392044 0
      vertex 4.716020906725474 -1.268786568327291 10
      vertex 4.716020906725474 -1.268786568327291 0
    endloop
  endfacet
  facet normal 0.803207531480644 -0.5956993044924344 0
    outer loop
      vertex 4.832939224605091 -1.1111404660392044 0
      vertex 4.832939224605091 -1.1111404660392044 10
      vertex 4.716020906725474 -1.268786568327291 10
    endloop
  endfacet
  facet normal 0.8577286100002729 -0.5141027441932204 0
    outer loop
      vertex 4.93384252869671 -0.9427934736519953 0
      vertex 4.832939224605091 -1.1111404660392044 10
      vertex 4.832939224605091 -1.1111404660392044 0
    endloop
  endfacet
  facet normal 0.8577286100002729 -0.5141027441932204 0
    outer loop
      vertex 4.93384252869671 -0.9427934736519953 0
      vertex 4.93384252869671 -0.9427934736519953 10
      vertex 4.832939224605091 -1.1111404660392044 10
    endloop
  endfacet
  facet normal 0.9039892931234421 -0.42755509343028464 0
    outer loop
      vertex 5.017759065022574 -0.7653668647301796 0
      vertex 4.93384252869671 -0.9427934736519953 10
      vertex 4.93384252869671 -0.9427934736519953 0
    endloop
  endfacet
  facet normal 0.9039892931234421 -0.42755509343028464 0
    outer loop
      vertex 5.017759065022574 -0.7653668647301796 0
      vertex 5.017759065022574 -0.7653668647301796 10
      vertex 4.93384252869671 -0.9427934736519953 10
    endloop
  endfacet
  facet normal 0.9415440651830224 -0.33688985339221567 0
    outer loop
      vertex 5.083880671464417 -0.5805693545089247 0
      vertex 5.017759065022574 -0.7653668647301796 10
      vertex 5.017759065022574 -0.7653668647301796 0
    endloop
  endfacet
  facet normal 0.9415440651830224 -0.33688985339221567 0
    outer loop
      vertex 5.083880671464417 -0.5805693545089247 0
      vertex 5.083880671464417 -0.5805693545089247 10
      vertex 5.017759065022574 -0.7653668647301796 10
    endloop
  endfacet
  facet normal 0.9700312531945434 -0.24298017990326626 0
    outer loop
      vertex 5.131570560806461 -0.3901806440322565 0
      vertex 5.083880671464417 -0.5805693545089247 10
      vertex 5.083880671464417 -0.5805693545089247 0
    endloop
  endfacet
  facet normal 0.9700312531945434 -0.24298017990326626 0
    outer loop
      vertex 5.131570560806461 -0.3901806440322565 0
      vertex 5.131570560806461 -0.3901806440322565 10
      vertex 5.083880671464417 -0.5805693545089247 10
    endloop
  endfacet
  facet normal 0.9891765099647806 -0.1467304744553646 0
    outer loop
      vertex 5.160369453344394 -0.1960342806591212 0
      vertex 5.131570560806461 -0.3901806440322565 10
      vertex 5.131570560806461 -0.3901806440322565 0
    endloop
  endfacet
  facet normal 0.9891765099647806 -0.1467304744553646 0
    outer loop
      vertex 5.160369453344394 -0.1960342806591212 0
      vertex 5.160369453344394 -0.1960342806591212 10
      vertex 5.131570560806461 -0.3901806440322565 10
    endloop
  endfacet
  facet normal 0.9987954562051725 -0.04906767432741532 0
    outer loop
      vertex 5.17 0 0
      vertex 5.160369453344394 -0.1960342806591212 10
      vertex 5.160369453344394 -0.1960342806591212 0
    endloop
  endfacet
  facet normal 0.9987954562051725 -0.04906767432741532 0
    outer loop
      vertex 5.17 0 0
      vertex 5.17 0 10
      vertex 5.160369453344394 -0.1960342806591212 10
    endloop
  endfacet
  facet normal 0.9987954562051725 0.04906767432741532 0
    outer loop
      vertex 5.160369453344394 0.1960342806591212 0
      vertex 5.17 0 10
      vertex 5.17 0 0
    endloop
  endfacet
  facet normal 0.9987954562051725 0.04906767432741532 0
    outer loop
      vertex 5.160369453344394 0.1960342806591212 0
      vertex 5.160369453344394 0.1960342806591212 10
      vertex 5.17 0 10
    endloop
  endfacet
  facet normal 0.9891765099647806 0.1467304744553646 0
    outer loop
      vertex 5.131570560806461 0.3901806440322565 0
      vertex 5.160369453344394 0.1960342806591212 10
      vertex 5.160369453344394 0.1960342806591212 0
    endloop
  endfacet
  facet normal 0.9891765099647806 0.1467304744553646 0
    outer loop
      vertex 5.131570560806461 0.3901806440322565 0
      vertex 5.131570560806461 0.3901806440322565 10
      vertex 5.160369453344394 0.1960342806591212 10
    endloop
  endfacet
  facet normal 0.9700312531945434 0.24298017990326626 0
    outer loop
      vertex 5.083880671464417 0.5805693545089247 0
      vertex 5.131570560806461 0.3901806440322565 10
      vertex 5.131570560806461 0.3901806440322565 0
    endloop
  endfacet
  facet normal 0.9700312531945434 0.24298017990326626 0
    outer loop
      vertex 5.083880671464417 0.5805693545089247 0
      vertex 5.083880671464417 0.5805693545089247 10
      vertex 5.131570560806461 0.3901806440322565 10
    endloop
  endfacet
  facet normal 0.9415440651830224 0.33688985339221567 0
    outer loop
      vertex 5.017759065022574 0.7653668647301796 0
      vertex 5.083880671464417 0.5805693545089247 10
      vertex 5.083880671464417 0.5805693545089247 0
    endloop
  endfacet
  facet normal 0.9415440651830224 0.33688985339221567 0
    outer loop
      vertex 5.017759065022574 0.7653668647301796 0
      vertex 5.017759065022574 0.7653668647301796 10
      vertex 5.083880671464417 0.5805693545089247 10
    endloop
  endfacet
  facet normal 0.9039892931234421 0.42755509343028464 0
    outer loop
      vertex 4.93384252869671 0.9427934736519953 0
      vertex 5.017759065022574 0.7653668647301796 10
      vertex 5.017759065022574 0.7653668647301796 0
    endloop
  endfacet
  facet normal 0.9039892931234421 0.42755509343028464 0
    outer loop
      vertex 4.93384252869671 0.9427934736519953 0
      vertex 4.93384252869671 0.9427934736519953 10
      vertex 5.017759065022574 0.7653668647301796 10
    endloop
  endfacet
  facet normal 0.8577286100002729 0.5141027441932204 0
    outer loop
      vertex 4.832939224605091 1.1111404660392044 0
      vertex 4.93384252869671 0.9427934736519953 10
      vertex 4.93384252869671 0.9427934736519953 0
    endloop
  endfacet
  facet normal 0.8577286100002729 0.5141027441932204 0
    outer loop
      vertex 4.832939224605091 1.1111404660392044 0
      vertex 4.832939224605091 1.1111404660392044 10
      vertex 4.93384252869671 0.9427934736519953 10
    endloop
  endfacet
  facet normal 0.803207531480644 0.5956993044924344 0
    outer loop
      vertex 4.716020906725474 1.268786568327291 0
      vertex 4.832939224605091 1.1111404660392044 10
      vertex 4.832939224605091 1.1111404660392044 0
    endloop
  endfacet
  facet normal 0.803207531480644 0.5956993044924344 0
    outer loop
      vertex 4.716020906725474 1.268786568327291 0
      vertex 4.716020906725474 1.268786568327291 10
      vertex 4.832939224605091 1.1111404660392044 10
    endloop
  endfacet
  facet normal 0.7409511253549594 0.671558954847018 0
    outer loop
      vertex 4.584213562373095 1.4142135623730951 0
      vertex 4.716020906725474 1.268786568327291 10
      vertex 4.716020906725474 1.268786568327291 0
    endloop
  endfacet
  facet normal 0.7409511253549594 0.671558954847018 0
    outer loop
      vertex 4.584213562373095 1.4142135623730951 0
      vertex 4.584213562373095 1.4142135623730951 10
      vertex 4.716020906725474 1.268786568327291 10
    endloop
  endfacet
  facet normal 0.6715589548470197 0.7409511253549579 0
    outer loop
      vertex 4.438786568327291 1.546020906725474 0
      vertex 4.584213562373095 1.4142135623730951 10
      vertex 4.584213562373095 1.4142135623730951 0
    endloop
  endfacet
  facet normal 0.6715589548470197 0.7409511253549579 0
    outer loop
      vertex 4.438786568327291 1.546020906725474 0
      vertex 4.438786568327291 1.546020906725474 10
      vertex 4.584213562373095 1.4142135623730951 10
    endloop
  endfacet
  facet normal 0.5956993044924318 0.8032075314806459 0
    outer loop
      vertex 4.281140466039204 1.6629392246050905 0
      vertex 4.438786568327291 1.546020906725474 10
      vertex 4.438786568327291 1.546020906725474 0
    endloop
  endfacet
  facet normal 0.5956993044924318 0.8032075314806459 0
    outer loop
      vertex 4.281140466039204 1.6629392246050905 0
      vertex 4.281140466039204 1.6629392246050905 10
      vertex 4.438786568327291 1.546020906725474 10
    endloop
  endfacet
  facet normal 0.5141027441932213 0.8577286100002722 0
    outer loop
      vertex 4.112793473651995 1.76384252869671 0
      vertex 4.281140466039204 1.6629392246050905 10
      vertex 4.281140466039204 1.6629392246050905 0
    endloop
  endfacet
  facet normal 0.5141027441932213 0.8577286100002722 0
    outer loop
      vertex 4.112793473651995 1.76384252869671 0
      vertex 4.112793473651995 1.76384252869671 10
      vertex 4.281140466039204 1.6629392246050905 10
    endloop
  endfacet
  facet normal 0.4275550934302827 0.903989293123443 0
    outer loop
      vertex 3.9353668647301796 1.8477590650225735 0
      vertex 4.112793473651995 1.76384252869671 10
      vertex 4.112793473651995 1.76384252869671 0
    endloop
  endfacet
  facet normal 0.4275550934302827 0.903989293123443 0
    outer loop
      vertex 3.9353668647301796 1.8477590650225735 0
      vertex 3.9353668647301796 1.8477590650225735 10
      vertex 4.112793473651995 1.76384252869671 10
    endloop
  endfacet
  facet normal 0.33688985339221933 0.9415440651830211 0
    outer loop
      vertex 3.7505693545089245 1.9138806714644176 0
      vertex 3.9353668647301796 1.8477590650225735 10
      vertex 3.9353668647301796 1.8477590650225735 0
    endloop
  endfacet
  facet normal 0.33688985339221933 0.9415440651830211 0
    outer loop
      vertex 3.7505693545089245 1.9138806714644176 0
      vertex 3.7505693545089245 1.9138806714644176 10
      vertex 3.9353668647301796 1.8477590650225735 10
    endloop
  endfacet
  facet normal 0.24298017990326415 0.9700312531945439 0
    outer loop
      vertex 3.5601806440322563 1.9615705608064609 0
      vertex 3.7505693545089245 1.9138806714644176 10
      vertex 3.7505693545089245 1.9138806714644176 0
    endloop
  endfacet
  facet normal 0.24298017990326415 0.9700312531945439 0
    outer loop
      vertex 3.5601806440322563 1.9615705608064609 0
      vertex 3.5601806440322563 1.9615705608064609 10
      vertex 3.7505693545089245 1.9138806714644176 10
    endloop
  endfacet
  facet normal 0.14673047445536255 0.9891765099647808 0
    outer loop
      vertex 3.3660342806591212 1.9903694533443939 0
      vertex 3.5601806440322563 1.9615705608064609 10
      vertex 3.5601806440322563 1.9615705608064609 0
    endloop
  endfacet
  facet normal 0.14673047445536255 0.9891765099647808 0
    outer loop
      vertex 3.3660342806591212 1.9903694533443939 0
      vertex 3.3660342806591212 1.9903694533443939 10
      vertex 3.5601806440322563 1.9615705608064609 10
    endloop
  endfacet
  facet normal 0.04906767432741755 0.9987954562051724 0
    outer loop
      vertex 3.17 2 0
      vertex 3.3660342806591212 1.9903694533443939 10
      vertex 3.3660342806591212 1.9903694533443939 0
    endloop
  endfacet
  facet normal 0.04906767432741755 0.9987954562051724 0
    outer loop
      vertex 3.17 2 0
      vertex 3.17 2 10
      vertex 3.3660342806591212 1.9903694533443939 10
    endloop
  endfacet
  facet normal 0 1 0
    outer loop
      vertex -3.17 2 0
      vertex 3.17 2 10
      vertex 3.17 2 0
    endloop
  endfacet
  facet normal 0 1 0
    outer loop
      vertex -3.17 2 0
      vertex -3.17 2 10
      vertex 3.17 2 10
    endloop
  endfacet
  facet normal -0.04906767432741755 0.9987954562051724 0
    outer loop
      vertex -3.3660342806591212 1.9903694533443939 0
      vertex -3.17 2 10
      vertex -3.17 2 0
    endloop
  endfacet
  facet normal -0.04906767432741755 0.9987954562051724 0
    outer loop
      vertex -3.3660342806591212 1.9903694533443939 0
      vertex -3.3660342806591212 1.9903694533443939 10
      vertex -3.17 2 10
    endloop
  endfacet
  facet normal -0.14673047445536255 0.9891765099647808 0
    outer loop
      vertex -3.5601806440322563 1.9615705608064609 0
      vertex -3.3660342806591212 1.9903694533443939 10
      vertex -3.3660342806591212 1.9903694533443939 0
    endloop
  endfacet
  facet normal -0.14673047445536255 0.9891765099647808 0
    outer loop
      vertex -3.5601806440322563 1.9615705608064609 0
      vertex -3.5601806440322563 1.9615705608064609 10
      vertex -3.3660342806591212 1.9903694533443939 10
    endloop
  endfacet
  facet normal -0.24298017990326415 0.9700312531945439 0
    outer loop
      vertex -3.7505693545089245 1.9138806714644176 0
      vertex -3.5601806440322563 1.9615705608064609 10
      vertex -3.5601806440322563 1.9615705608064609 0
    endloop
  endfacet
  facet normal -0.24298017990326415 0.9700312531945439 0
    outer loop
      vertex -3.7505693545089245 1.9138806714644176 0
      vertex -3.7505693545089245 1.9138806714644176 10
      vertex -3.5601806440322563 1.9615705608064609 10
    endloop
  endfacet
  facet normal -0.33688985339221933 0.9415440651830211 0
    outer loop
      vertex -3.9353668647301796 1.8477590650225735 0
      vertex -3.7505693545089245 1.9138806714644176 10
      vertex -3.7505693545089245 1.9138806714644176 0
    endloop
  endfacet
  facet normal -0.33688985339221933 0.9415440651830211 0
    outer loop
      vertex -3.9353668647301796 1.8477590650225735 0
      vertex -3.9353668647301796 1.8477590650225735 10
      vertex -3.7505693545089245 1.9138806714644176 10
    endloop
  endfacet
  facet normal -0.4275550934302827 0.903989293123443 0
    outer loop
      vertex -4.112793473651995 1.76384252869671 0
      vertex -3.9353668647301796 1.8477590650225735 10
      vertex -3.9353668647301796 1.8477590650225735 0
    endloop
  endfacet
  facet normal -0.4275550934302827 0.903989293123443 0
    outer loop
      vertex -4.112793473651995 1.76384252869671 0
      vertex -4.112793473651995 1.76384252869671 10
      vertex -3.9353668647301796 1.8477590650225735 10
    endloop
  endfacet
  facet normal -0.5141027441932213 0.8577286100002722 0
    outer loop
      vertex -4.281140466039204 1.6629392246050905 0
      vertex -4.112793473651995 1.76384252869671 10
      vertex -4.112793473651995 1.76384252869671 0
    endloop
  endfacet
  facet normal -0.5141027441932213 0.8577286100002722 0
    outer loop
      vertex -4.281140466039204 1.6629392246050905 0
      vertex -4.281140466039204 1.6629392246050905 10
      vertex -4.112793473651995 1.76384252869671 10
    endloop
  endfacet
  facet normal -0.5956993044924318 0.8032075314806459 0
    outer loop
      vertex -4.438786568327291 1.546020906725474 0
      vertex -4.281140466039204 1.6629392246050905 10
      vertex -4.281140466039204 1.6629392246050905 0
    endloop
  endfacet
  facet normal -0.5956993044924318 0.8032075314806459 0
    outer loop
      vertex -4.438786568327291 1.546020906725474 0
      vertex -4.438786568327291 1.546020906725474 10
      vertex -4.281140466039204 1.6629392246050905 10
    endloop
  endfacet
  facet normal -0.6715589548470197 0.7409511253549579 0
    outer loop
      vertex -4.584213562373095 1.4142135623730951 0
      vertex -4.438786568327291 1.546020906725474 10
      vertex -4.438786568327291 1.546020906725474 0
    endloop
  endfacet
  facet normal -0.6715589548470197 0.7409511253549579 0
    outer loop
      vertex -4.584213562373095 1.4142135623730951 0
      vertex -4.584213562373095 1.4142135623730951 10
      vertex -4.438786568327291 1.546020906725474 10
    endloop
  endfacet
  facet normal -0.7409511253549594 0.671558954847018 0
    outer loop
      vertex -4.716020906725474 1.268786568327291 0
      vertex -4.584213562373095 1.4142135623730951 10
      vertex -4.584213562373095 1.4142135623730951 0
    endloop
  endfacet
  facet normal -0.7409511253549594 0.671558954847018 0
    outer loop
      vertex -4.716020906725474 1.268786568327291 0
      vertex -4.716020906725474 1.268786568327291 10
      vertex -4.584213562373095 1.4142135623730951 10
    endloop
  endfacet
  facet normal -0.803207531480644 0.5956993044924344 0
    outer loop
      vertex -4.832939224605091 1.1111404660392044 0
      vertex -4.716020906725474 1.268786568327291 10
      vertex -4.716020906725474 1.268786568327291 0
    endloop
  endfacet
  facet normal -0.803207531480644 0.5956993044924344 0
    outer loop
      vertex -4.832939224605091 1.1111404660392044 0
      vertex -4.832939224605091 1.1111404660392044 10
      vertex -4.716020906725474 1.268786568327291 10
    endloop
  endfacet
  facet normal -0.8577286100002729 0.5141027441932204 0
    outer loop
      vertex -4.93384252869671 0.9427934736519953 0
      vertex -4.832939224605091 1.1111404660392044 10
      vertex -4.832939224605091 1.1111404660392044 0
    endloop
  endfacet
  facet normal -0.8577286100002729 0.5141027441932204 0
    outer loop
      vertex -4.93384252869671 0.9427934736519953 0
      vertex -4.93384252869671 0.9427934736519953 10
      vertex -4.832939224605091 1.1111404660392044 10
    endloop
  endfacet
  facet normal -0.9039892931234421 0.42755509343028464 0
    outer loop
      vertex -5.017759065022574 0.7653668647301796 0
      vertex -4.93384252869671 0.9427934736519953 10
      vertex -4.93384252869671 0.9427934736519953 0
    endloop
  endfacet
  facet normal -0.9039892931234421 0.42755509343028464 0
    outer loop
      vertex -5.017759065022574 0.7653668647301796 0
      vertex -5.017759065022574 0.7653668647301796 10
      vertex -4.93384252869671 0.9427934736519953 10
    endloop
  endfacet
  facet normal -0.9415440651830224 0.33688985339221567 0
    outer loop
      vertex -5.083880671464417 0.5805693545089247 0
      vertex -5.017759065022574 0.7653668647301796 10
      vertex -5.017759065022574 0.7653668647301796 0
    endloop
  endfacet
  facet normal -0.9415440651830224 0.33688985339221567 0
    outer loop
      vertex -5.083880671464417 0.5805693545089247 0
      vertex -5.083880671464417 0.5805693545089247 10
      vertex -5.017759065022574 0.7653668647301796 10
    endloop
  endfacet
  facet normal -0.9700312531945434 0.24298017990326626 0
    outer loop
      vertex -5.131570560806461 0.3901806440322565 0
      vertex -5.083880671464417 0.5805693545089247 10
      vertex -5.083880671464417 0.5805693545089247 0
    endloop
  endfacet
  facet normal -0.9700312531945434 0.24298017990326626 0
    outer loop
      vertex -5.131570560806461 0.3901806440322565 0
      vertex -5.131570560806461 0.3901806440322565 10
      vertex -5.083880671464417 0.5805693545089247 10
    endloop
  endfacet
  facet normal -0.9891765099647806 0.1467304744553646 0
    outer loop
      vertex -5.160369453344394 0.1960342806591212 0
      vertex -5.131570560806461 0.3901806440322565 10
      vertex -5.131570560806461 0.3901806440322565 0
    endloop
  endfacet
  facet normal -0.9891765099647806 0.1467304744553646 0
    outer loop
      vertex -5.160369453344394 0.1960342806591212 0
      vertex -5.160369453344394 0.1960342806591212 10
      vertex -5.131570560806461 0.3901806440322565 10
    endloop
  endfacet
  facet normal -0.9987954562051725 0.04906767432741532 0
    outer loop
      vertex -5.17 0 0
      vertex -5.160369453344394 0.1960342806591212 10
      vertex -5.160369453344394 0.1960342806591212 0
    endloop
  endfacet
  facet normal -0.9987954562051725 0.04906767432741532 0
    outer loop
      vertex -5.17 0 0
      vertex -5.17 0 10
      vertex -5.160369453344394 0.1960342806591212 10
    endloop
  endfacet
  facet normal 0 0 1
    outer loop
      vertex -5.17 0 10
      vertex -5.160369453344394 -0.1960342806591212 10
      vertex -5.160369453344394 0.1960342806591212 10
    endloop
  endfacet
  facet normal 0 0 1
    outer loop
      vertex -5.160369453344394 -0.1960342806591212 10
      vertex -5.131570560806461 0.3901806440322565 10
      vertex -5.160369453344394 0.1960342806591212 10
    endloop
  endfacet
  facet normal 0 0 1
    outer loop
      vertex -5.160369453344394 -0.1960342806591212 10
      vertex -5.131570560806461 -0.3901806440322565 10
      vertex -5.131570560806461 0.3901806440322565 10
    endloop
  endfacet
  facet normal 0 0 1
    outer loop
      vertex -5.131570560806461 -0.3901806440322565 10
      vertex -5.083880671464417 0.5805693545089247 10
      vertex -5.131570560806461 0.3901806440322565 10
    endloop
  endfacet
  facet normal 0 0 1
    outer loop
      vertex -5.131570560806461 -0.3901806440322565 10
      vertex -5.083880671464417 -0.5805693545089247 10
      vertex -5.083880671464417 0.5805693545089247 10
    endloop
  endfacet
  facet normal 0 0 1
    outer loop
      vertex -5.083880671464417 -0.5805693545089247 10
      vertex -5.017759065022574 0.7653668647301796 10
      vertex -5.083880671464417 0.5805693545089247 10
    endloop
  endfacet
  facet normal 0 0 1
    outer loop
      vertex -5.083880671464417 -0.5805693545089247 10
      vertex -5.017759065022574 -0.7653668647301796 10
      vertex -5.017759065022574 0.7653668647301796 10
    endloop
  endfacet
  facet normal 0 0 1
    outer loop
      vertex -5.017759065022574 -0.7653668647301796 10
      vertex -4.93384252869671 0.9427934736519953 10
      vertex -5.017759065022574 0.7653668647301796 10
    endloop
  endfacet
  facet normal 0 0 1
    outer loop
      vertex -5.017759065022574 -0.7653668647301796 10
      vertex -4.93384252869671 -0.9427934736519953 10
      vertex -4.93384252869671 0.9427934736519953 10
    endloop
  endfacet
  facet normal 0 0 1
    outer loop
      vertex -4.93384252869671 -0.9427934736519953 10
      vertex -4.832939224605091 1.1111404660392044 10
      vertex -4.93384252869671 0.9427934736519953 10
    endloop
  endfacet
  facet normal 0 0 1
    outer loop
      vertex -4.93384252869671 -0.9427934736519953 10
      vertex -4.832939224605091 -1.1111404660392044 10
      vertex -4.832939224605091 1.1111404660392044 10
    endloop
  endfacet
  facet normal 0 0 1
    outer loop
      vertex -4.832939224605091 -1.1111404660392044 10
      vertex -4.716020906725474 1.268786568327291 10
      vertex -4.832939224605091 1.1111404660392044 10
    endloop
  endfacet
  facet normal 0 0 1
    outer loop
      vertex -4.832939224605091 -1.1111404660392044 10
      vertex -4.716020906725474 -1.268786568327291 10
      vertex -4.716020906725474 1.268786568327291 10
    endloop
  endfacet
  facet normal 0 0 1
    outer loop
      vertex -4.716020906725474 -1.268786568327291 10
      vertex -4.584213562373095 1.4142135623730951 10
      vertex -4.716020906725474 1.268786568327291 10
    endloop
  endfacet
  facet normal 0 0 1
    outer loop
      vertex -4.716020906725474 -1.268786568327291 10
      vertex -4.584213562373095 -1.4142135623730951 10
      vertex -4.584213562373095 1.4142135623730951 10
    endloop
  endfacet
  facet normal 0 0 1
    outer loop
      vertex -4.584213562373095 -1.4142135623730951 10
      vertex -4.438786568327291 1.546020906725474 10
      vertex -4.584213562373095 1.4142135623730951 10
    endloop
  endfacet
  facet normal 0 0 1
    outer loop
      vertex -4.584213562373095 -1.4142135623730951 10
      vertex -4.438786568327291 -1.546020906725474 10
      vertex -4.438786568327291 1.546020906725474 10
    endloop
  endfacet
  facet normal 0 0 1
    outer loop
      vertex -4.438786568327291 -1.546020906725474 10
      vertex -4.281140466039204 1.6629392246050905 10
      vertex -4.438786568327291 1.546020906725474 10
    endloop
  endfacet
  facet normal 0 0 1
    outer loop
      vertex -4.438786568327291 -1.546020906725474 10
      vertex -4.281140466039204 -1.6629392246050905 10
      vertex -4.281140466039204 1.6629392246050905 10
    endloop
  endfacet
  facet normal 0 0 1
    outer loop
      vertex -4.281140466039204 -1.6629392246050905 10
      vertex -4.112793473651995 1.76384252869671 10
      vertex -4.281140466039204 1.6629392246050905 10
    endloop
  endfacet
  facet normal 0 0 1
    outer loop
      vertex -4.281140466039204 -1.6629392246050905 10
      vertex -4.112793473651995 -1.76384252869671 10
      vertex -4.112793473651995 1.76384252869671 10
    endloop
  endfacet
  facet normal 0 0 1
    outer loop
      vertex -4.112793473651995 -1.76384252869671 10
      vertex -3.9353668647301796 1.8477590650225735 10
      vertex -4.112793473651995 1.76384252869671 10
    endloop
  endfacet
  facet normal 0 0 1
    outer loop
      vertex -4.112793473651995 -1.76384252869671 10
      vertex -3.9353668647301796 -1.8477590650225735 10
      vertex -3.9353668647301796 1.8477590650225735 10
    endloop
  endfacet
  facet normal 0 0 1
    outer loop
      vertex -3.9353668647301796 -1.8477590650225735 10
      vertex -3.7505693545089245 1.9138806714644176 10
      vertex -3.9353668647301796 1.8477590650225735 10
    endloop
  endfacet
  facet normal 0 0 1
    outer loop
      vertex -3.9353668647301796 -1.8477590650225735 10
      vertex -3.7505693545089245 -1.9138806714644176 10
      vertex -3.7505693545089245 1.9138806714644176 10
    endloop
  endfacet
  facet normal 0 0 1
    outer loop
      vertex -3.7505693545089245 -1.9138806714644176 10
      vertex -3.5601806440322563 1.9615705608064609 10
      vertex -3.7505693545089245 1.9138806714644176 10
    endloop
  endfacet
  facet normal 0 0 1
    outer loop
      vertex -3.7505693545089245 -1.9138806714644176 10
      vertex -3.5601806440322563 -1.9615705608064609 10
      vertex -3.5601806440322563 1.9615705608064609 10
    endloop
  endfacet
  facet normal 0 0 1
    outer loop
      vertex -3.5601806440322563 -1.9615705608064609 10
      vertex -3.3660342806591212 1.9903694533443939 10
      vertex -3.5601806440322563 1.9615705608064609 10
    endloop
  endfacet
  facet normal 0 0 1
    outer loop
      vertex -3.5601806440322563 -1.9615705608064609 10
      vertex -3.3660342806591212 -1.9903694533443939 10
      vertex -3.3660342806591212 1.9903694533443939 10
    endloop
  endfacet
  facet normal 0 0 1
    outer loop
      vertex -3.3660342806591212 -1.9903694533443939 10
      vertex -3.17 2 10
      vertex -3.3660342806591212 1.9903694533443939 10
    endloop
  endfacet
  facet normal 0 0 1
    outer loop
      vertex -3.3660342806591212 -1.9903694533443939 10
      vertex -3.17 -2 10
      vertex -3.17 2 10
    endloop
  endfacet
  facet normal 0 0 1
    outer loop
      vertex -3.17 -2 10
      vertex 3.17 2 10
      vertex -3.17 2 10
    endloop
  endfacet
  facet normal 0 0 1
    outer loop
      vertex -3.17 -2 10
      vertex 3.17 -2 10
      vertex 3.17 2 10
    endloop
  endfacet
  facet normal 0 0 1
    outer loop
      vertex 3.17 -2 10
      vertex 3.3660342806591212 1.9903694533443939 10
      vertex 3.17 2 10
    endloop
  endfacet
  facet normal 0 0 1
    outer loop
      vertex 3.17 -2 10
      vertex 3.3660342806591212 -1.9903694533443939 10
      vertex 3.3660342806591212 1.9903694533443939 10
    endloop
  endfacet
  facet normal 0 0 1
    outer loop
      vertex 3.3660342806591212 -1.9903694533443939 10
      vertex 3.5601806440322563 1.9615705608064609 10
      vertex 3.3660342806591212 1.9903694533443939 10
    endloop
  endfacet
  facet normal 0 0 1
    outer loop
      vertex 3.3660342806591212 -1.9903694533443939 10
      vertex 3.5601806440322563 -1.9615705608064609 10
      vertex 3.5601806440322563 1.9615705608064609 10
    endloop
  endfacet
  facet normal 0 0 1
    outer loop
      vertex 3.5601806440322563 -1.9615705608064609 10
      vertex 3.7505693545089245 1.9138806714644176 10
      vertex 3.5601806440322563 1.9615705608064609 10
    endloop
  endfacet
  facet normal 0 0 1
    outer loop
      vertex 3.5601806440322563 -1.9615705608064609 10
      vertex 3.7505693545089245 -1.9138806714644176 10
      vertex 3.7505693545089245 1.9138806714644176 10
    endloop
  endfacet
  facet normal 0 0 1
    outer loop
      vertex 3.7505693545089245 -1.9138806714644176 10
      vertex 3.9353668647301796 1.8477590650225735 10
      vertex 3.7505693545089245 1.9138806714644176 10
    endloop
  endfacet
  facet normal 0 0 1
    outer loop
      vertex 3.7505693545089245 -1.9138806714644176 10
      vertex 3.9353668647301796 -1.8477590650225735 10
      vertex 3.9353668647301796 1.8477590650225735 10
    endloop
  endfacet
  facet normal 0 0 1
    outer loop
      vertex 3.9353668647301796 -1.8477590650225735 10
      vertex 4.112793473651995 1.76384252869671 10
      vertex 3.9353668647301796 1.8477590650225735 10
    endloop
  endfacet
  facet normal 0 0 1
    outer loop
      vertex 3.9353668647301796 -1.8477590650225735 10
      vertex 4.112793473651995 -1.76384252869671 10
      vertex 4.112793473651995 1.76384252869671 10
    endloop
  endfacet
  facet normal 0 0 1
    outer loop
      vertex 4.112793473651995 -1.76384252869671 10
      vertex 4.281140466039204 1.6629392246050905 10
      vertex 4.112793473651995 1.76384252869671 10
    endloop
  endfacet
  facet normal 0 0 1
    outer loop
      vertex 4.112793473651995 -1.76384252869671 10
      vertex 4.281140466039204 -1.6629392246050905 10
      vertex 4.281140466039204 1.6629392246050905 10
    endloop
  endfacet
  facet normal 0 0 1
    outer loop
      vertex 4.281140466039204 -1.6629392246050905 10
      vertex 4.438786568327291 1.546020906725474 10
      vertex 4.281140466039204 1.6629392246050905 10
    endloop
  endfacet
  facet normal 0 0 1
    outer loop
      vertex 4.281140466039204 -1.6629392246050905 10
      vertex 4.438786568327291 -1.546020906725474 10
      vertex 4.438786568327291 1.546020906725474 10
    endloop
  endfacet
  facet normal 0 0 1
    outer loop
      vertex 4.438786568327291 -1.546020906725474 10
      vertex 4.584213562373095 1.4142135623730951 10
      vertex 4.438786568327291 1.546020906725474 10
    endloop
  endfacet
  facet normal 0 0 1
    outer loop
      vertex 4.438786568327291 -1.546020906725474 10
      vertex 4.584213562373095 -1.4142135623730951 10
      vertex 4.584213562373095 1.4142135623730951 10
    endloop
  endfacet
  facet normal 0 0 1
    outer loop
      vertex 4.584213562373095 -1.4142135623730951 10
      vertex 4.716020906725474 1.268786568327291 10
      vertex 4.584213562373095 1.4142135623730951 10
    endloop
  endfacet
  facet normal 0 0 1
    outer loop
      vertex 4.584213562373095 -1.4142135623730951 10
      vertex 4.716020906725474 -1.268786568327291 10
      vertex 4.716020906725474 1.268786568327291 10
    endloop
  endfacet
  facet normal 0 0 1
    outer loop
      vertex 4.716020906725474 -1.268786568327291 10
      vertex 4.832939224605091 1.1111404660392044 10
      vertex 4.716020906725474 1.268786568327291 10
    endloop
  endfacet
  facet normal 0 0 1
    outer loop
      vertex 4.716020906725474 -1.268786568327291 10
      vertex 4.832939224605091 -1.1111404660392044 10
      vertex 4.832939224605091 1.1111404660392044 10
    endloop
  endfacet
  facet normal 0 0 1
    outer loop
      vertex 4.832939224605091 -1.1111404660392044 10
      vertex 4.93384252869671 0.9427934736519953 10
      vertex 4.832939224605091 1.1111404660392044 10
    endloop
  endfacet
  facet normal 0 0 1
    outer loop
      vertex 4.832939224605091 -1.1111404660392044 10
      vertex 4.93384252869671 -0.9427934736519953 10
      vertex 4.93384252869671 0.9427934736519953 10
    endloop
  endfacet
  facet normal 0 0 1
    outer loop
      vertex 4.93384252869671 -0.9427934736519953 10
      vertex 5.017759065022574 0.7653668647301796 10
      vertex 4.93384252869671 0.9427934736519953 10
    endloop
  endfacet
  facet normal 0 0 1
    outer loop
      vertex 4.93384252869671 -0.9427934736519953 10
      vertex 5.017759065022574 -0.7653668647301796 10
      vertex 5.017759065022574 0.7653668647301796 10
    endloop
  endfacet
  facet normal 0 0 1
    outer loop
      vertex 5.017759065022574 -0.7653668647301796 10
      vertex 5.083880671464417 0.5805693545089247 10
      vertex 5.017759065022574 0.7653668647301796 10
    endloop
  endfacet
  facet normal 0 0 1
    outer loop
      vertex 5.017759065022574 -0.7653668647301796 10
      vertex 5.083880671464417 -0.5805693545089247 10
      vertex 5.083880671464417 0.5805693545089247 10
    endloop
  endfacet
  facet normal 0 0 1
    outer loop
      vertex 5.083880671464417 -0.5805693545089247 10
      vertex 5.131570560806461 0.3901806440322565 10
      vertex 5.083880671464417 0.5805693545089247 10
    endloop
  endfacet
  facet normal 0 0 1
    outer loop
      vertex 5.083880671464417 -0.5805693545089247 10
      vertex 5.131570560806461 -0.3901806440322565 10
      vertex 5.131570560806461 0.3901806440322565 10
    endloop
  endfacet
  facet normal 0 0 1
    outer loop
      vertex 5.131570560806461 -0.3901806440322565 10
      vertex 5.160369453344394 0.1960342806591212 10
      vertex 5.131570560806461 0.3901806440322565 10
    endloop
  endfacet
  facet normal 0 0 1
    outer loop
      vertex 5.131570560806461 -0.3901806440322565 10
      vertex 5.160369453344394 -0.1960342806591212 10
      vertex 5.160369453344394 0.1960342806591212 10
    endloop
  endfacet
  facet normal 0 0 1
    outer loop
      vertex 5.160369453344394 -0.1960342806591212 10
      vertex 5.17 0 10
      vertex 5.160369453344394 0.1960342806591212 10
    endloop
  endfacet
  facet normal 0 0 -1
    outer loop
      vertex -5.160369453344394 0.1960342806591212 0
      vertex -5.160369453344394 -0.1960342806591212 0
      vertex -5.17 0 0
    endloop
  endfacet
  facet normal 0 0 -1
    outer loop
      vertex -5.160369453344394 0.1960342806591212 0
      vertex -5.131570560806461 0.3901806440322565 0
      vertex -5.160369453344394 -0.1960342806591212 0
    endloop
  endfacet
  facet normal 0 0 -1
    outer loop
      vertex -5.131570560806461 0.3901806440322565 0
      vertex -5.131570560806461 -0.3901806440322565 0
      vertex -5.160369453344394 -0.1960342806591212 0
    endloop
  endfacet
  facet normal 0 0 -1
    outer loop
      vertex -5.131570560806461 0.3901806440322565 0
      vertex -5.083880671464417 0.5805693545089247 0
      vertex -5.131570560806461 -0.3901806440322565 0
    endloop
  endfacet
  facet normal 0 0 -1
    outer loop
      vertex -5.083880671464417 0.5805693545089247 0
      vertex -5.083880671464417 -0.5805693545089247 0
      vertex -5.131570560806461 -0.3901806440322565 0
    endloop
  endfacet
  facet normal 0 0 -1
    outer loop
      vertex -5.083880671464417 0.5805693545089247 0
      vertex -5.017759065022574 0.7653668647301796 0
      vertex -5.083880671464417 -0.5805693545089247 0
    endloop
  endfacet
  facet normal 0 0 -1
    outer loop
      vertex -5.017759065022574 0.7653668647301796 0
      vertex -5.017759065022574 -0.7653668647301796 0
      vertex -5.083880671464417 -0.5805693545089247 0
    endloop
  endfacet
  facet normal 0 0 -1
    outer loop
      vertex -5.017759065022574 0.7653668647301796 0
      vertex -4.93384252869671 0.9427934736519953 0
      vertex -5.017759065022574 -0.7653668647301796 0
    endloop
  endfacet
  facet normal 0 0 -1
    outer loop
      vertex -4.93384252869671 0.9427934736519953 0
      vertex -4.93384252869671 -0.9427934736519953 0
      vertex -5.017759065022574 -0.7653668647301796 0
    endloop
  endfacet
  facet normal 0 0 -1
    outer loop
      vertex -4.93384252869671 0.9427934736519953 0
      vertex -4.832939224605091 1.1111404660392044 0
      vertex -4.93384252869671 -0.9427934736519953 0
    endloop
  endfacet
  facet normal 0 0 -1
    outer loop
      vertex -4.832939224605091 1.1111404660392044 0
      vertex -4.832939224605091 -1.1111404660392044 0
      vertex -4.93384252869671 -0.9427934736519953 0
    endloop
  endfacet
  facet normal 0 0 -1
    outer loop
      vertex -4.832939224605091 1.1111404660392044 0
      vertex -4.716020906725474 1.268786568327291 0
      vertex -4.832939224605091 -1.1111404660392044 0
    endloop
  endfacet
  facet normal 0 0 -1
    outer loop
      vertex -4.716020906725474 1.268786568327291 0
      vertex -4.716020906725474 -1.268786568327291 0
      vertex -4.832939224605091 -1.1111404660392044 0
    endloop
  endfacet
  facet normal 0 0 -1
    outer loop
      vertex -4.716020906725474 1.268786568327291 0
      vertex -4.584213562373095 1.4142135623730951 0
      vertex -4.716020906725474 -1.268786568327291 0
    endloop
  endfacet
  facet normal 0 0 -1
    outer loop
      vertex -4.584213562373095 1.4142135623730951 0
      vertex -4.584213562373095 -1.4142135623730951 0
      vertex -4.716020906725474 -1.268786568327291 0
    endloop
  endfacet
  facet normal 0 0 -1
    outer loop
      vertex -4.584213562373095 1.4142135623730951 0
      vertex -4.438786568327291 1.546020906725474 0
      vertex -4.584213562373095 -1.4142135623730951 0
    endloop
  endfacet
  facet normal 0 0 -1
    outer loop
      vertex -4.438786568327291 1.546020906725474 0
      vertex -4.438786568327291 -1.546020906725474 0
      vertex -4.584213562373095 -1.4142135623730951 0
    endloop
  endfacet
  facet normal 0 0 -1
    outer loop
      vertex -4.438786568327291 1.546020906725474 0
      vertex -4.281140466039204 1.6629392246050905 0
      vertex -4.438786568327291 -1.546020906725474 0
    endloop
  endfacet
  facet normal 0 0 -1
    outer loop
      vertex -4.281140466039204 1.6629392246050905 0
      vertex -4.281140466039204 -1.6629392246050905 0
      vertex -4.438786568327291 -1.546020906725474 0
    endloop
  endfacet
  facet normal 0 0 -1
    outer loop
      vertex -4.281140466039204 1.6629392246050905 0
      vertex -4.112793473651995 1.76384252869671 0
      vertex -4.281140466039204 -1.6629392246050905 0
    endloop
  endfacet
  facet normal 0 0 -1
    outer loop
      vertex -4.112793473651995 1.76384252869671 0
      vertex -4.112793473651995 -1.76384252869671 0
      vertex -4.281140466039204 -1.6629392246050905 0
    endloop
  endfacet
  facet normal 0 0 -1
    outer loop
      vertex -4.112793473651995 1.76384252869671 0
      vertex -3.9353668647301796 1.8477590650225735 0
      vertex -4.112793473651995 -1.76384252869671 0
    endloop
  endfacet
  facet normal 0 0 -1
    outer loop
      vertex -3.9353668647301796 1.8477590650225735 0
      vertex -3.9353668647301796 -1.8477590650225735 0
      vertex -4.112793473651995 -1.76384252869671 0
    endloop
  endfacet
  facet normal 0 0 -1
    outer loop
      vertex -3.9353668647301796 1.8477590650225735 0
      vertex -3.7505693545089245 1.9138806714644176 0
      vertex -3.9353668647301796 -1.8477590650225735 0
    endloop
  endfacet
  facet normal 0 0 -1
    outer loop
      vertex -3.7505693545089245 1.9138806714644176 0
      vertex -3.7505693545089245 -1.9138806714644176 0
      vertex -3.9353668647301796 -1.8477590650225735 0
    endloop
  endfacet
  facet normal 0 0 -1
    outer loop
      vertex -3.7505693545089245 1.9138806714644176 0
      vertex -3.5601806440322563 1.9615705608064609 0
      vertex -3.7505693545089245 -1.9138806714644176 0
    endloop
  endfacet
  facet normal 0 0 -1
    outer loop
      vertex -3.5601806440322563 1.9615705608064609 0
      vertex -3.5601806440322563 -1.9615705608064609 0
      vertex -3.7505693545089245 -1.9138806714644176 0
    endloop
  endfacet
  facet normal 0 0 -1
    outer loop
      vertex -3.5601806440322563 1.9615705608064609 0
      vertex -3.3660342806591212 1.9903694533443939 0
      vertex -3.5601806440322563 -1.9615705608064609 0
    endloop
  endfacet
  facet normal 0 0 -1
    outer loop
      vertex -3.3660342806591212 1.9903694533443939 0
      vertex -3.3660342806591212 -1.9903694533443939 0
      vertex -3.5601806440322563 -1.9615705608064609 0
    endloop
  endfacet
  facet normal 0 0 -1
    outer loop
      vertex -3.3660342806591212 1.9903694533443939 0
      vertex -3.17 2 0
      vertex -3.3660342806591212 -1.9903694533443939 0
    endloop
  endfacet
  facet normal 0 0 -1
    outer loop
      vertex -3.17 2 0
      vertex -3.17 -2 0
      vertex -3.3660342806591212 -1.9903694533443939 0
    endloop
  endfacet
  facet normal 0 0 -1
    outer loop
      vertex -3.17 2 0
      vertex 3.17 2 0
      vertex -3.17 -2 0
    endloop
  endfacet
  facet normal 0 0 -1
    outer loop
      vertex 3.17 2 0
      vertex 3.17 -2 0
      vertex -3.17 -2 0
    endloop
  endfacet
  facet normal 0 0 -1
    outer loop
      vertex 3.17 2 0
      vertex 3.3660342806591212 1.9903694533443939 0
      vertex 3.17 -2 0
    endloop
  endfacet
  facet normal 0 0 -1
    outer loop
      vertex 3.3660342806591212 1.9903694533443939 0
      vertex 3.3660342806591212 -1.9903694533443939 0
      vertex 3.17 -2 0
    endloop
  endfacet
  facet normal 0 0 -1
    outer loop
      vertex 3.3660342806591212 1.9903694533443939 0
      vertex 3.5601806440322563 1.9615705608064609 0
      vertex 3.3660342806591212 -1.9903694533443939 0
    endloop
  endfacet
  facet normal 0 0 -1
    outer loop
      vertex 3.5601806440322563 1.9615705608064609 0
      vertex 3.5601806440322563 -1.9615705608064609 0
      vertex 3.3660342806591212 -1.9903694533443939 0
    endloop
  endfacet
  facet normal 0 0 -1
    outer loop
      vertex 3.5601806440322563 1.9615705608064609 0
      vertex 3.7505693545089245 1.9138806714644176 0
      vertex 3.5601806440322563 -1.9615705608064609 0
    endloop
  endfacet
  facet normal 0 0 -1
    outer loop
      vertex 3.7505693545089245 1.9138806714644176 0
      vertex 3.7505693545089245 -1.9138806714644176 0
      vertex 3.5601806440322563 -1.9615705608064609 0
    endloop
  endfacet
  facet normal 0 0 -1
    outer loop
      vertex 3.7505693545089245 1.9138806714644176 0
      vertex 3.9353668647301796 1.8477590650225735 0
      vertex 3.7505693545089245 -1.9138806714644176 0
    endloop
  endfacet
  facet normal 0 0 -1
    outer loop
      vertex 3.9353668647301796 1.8477590650225735 0
      vertex 3.9353668647301796 -1.8477590650225735 0
      vertex 3.7505693545089245 -1.9138806714644176 0
    endloop
  endfacet
  facet normal 0 0 -1
    outer loop
      vertex 3.9353668647301796 1.8477590650225735 0
      vertex 4.112793473651995 1.76384252869671 0
      vertex 3.9353668647301796 -1.8477590650225735 0
    endloop
  endfacet
  facet normal 0 0 -1
    outer loop
      vertex 4.112793473651995 1.76384252869671 0
      vertex 4.112793473651995 -1.76384252869671 0
      vertex 3.9353668647301796 -1.8477590650225735 0
    endloop
  endfacet
  facet normal 0 0 -1
    outer loop
      vertex 4.112793473651995 1.76384252869671 0
      vertex 4.281140466039204 1.6629392246050905 0
      vertex 4.112793473651995 -1.76384252869671 0
    endloop
  endfacet
  facet normal 0 0 -1
    outer loop
      vertex 4.281140466039204 1.6629392246050905 0
      vertex 4.281140466039204 -1.6629392246050905 0
      vertex 4.112793473651995 -1.76384252869671 0
    endloop
  endfacet
  facet normal 0 0 -1
    outer loop
      vertex 4.281140466039204 1.6629392246050905 0
      vertex 4.438786568327291 1.546020906725474 0
      vertex 4.281140466039204 -1.6629392246050905 0
    endloop
  endfacet
  facet normal 0 0 -1
    outer loop
      vertex 4.438786568327291 1.546020906725474 0
      vertex 4.438786568327291 -1.546020906725474 0
      vertex 4.281140466039204 -1.6629392246050905 0
    endloop
  endfacet
  facet normal 0 0 -1
    outer loop
      vertex 4.438786568327291 1.546020906725474 0
      vertex 4.584213562373095 1.4142135623730951 0
      vertex 4.438786568327291 -1.546020906725474 0
    endloop
  endfacet
  facet normal 0 0 -1
    outer loop
      vertex 4.584213562373095 1.4142135623730951 0
      vertex 4.584213562373095 -1.4142135623730951 0
      vertex 4.438786568327291 -1.546020906725474 0
    endloop
  endfacet
  facet normal 0 0 -1
    outer loop
      vertex 4.584213562373095 1.4142135623730951 0
      vertex 4.716020906725474 1.268786568327291 0
      vertex 4.584213562373095 -1.4142135623730951 0
    endloop
  endfacet
  facet normal 0 0 -1
    outer loop
      vertex 4.716020906725474 1.268786568327291 0
      vertex 4.716020906725474 -1.268786568327291 0
      vertex 4.584213562373095 -1.4142135623730951 0
    endloop
  endfacet
  facet normal 0 0 -1
    outer loop
      vertex 4.716020906725474 1.268786568327291 0
      vertex 4.832939224605091 1.1111404660392044 0
      vertex 4.716020906725474 -1.268786568327291 0
    endloop
  endfacet
  facet normal 0 0 -1
    outer loop
      vertex 4.832939224605091 1.1111404660392044 0
      vertex 4.832939224605091 -1.1111404660392044 0
      vertex 4.716020906725474 -1.268786568327291 0
    endloop
  endfacet
  facet normal 0 0 -1
    outer loop
      vertex 4.832939224605091 1.1111404660392044 0
      vertex 4.93384252869671 0.9427934736519953 0
      vertex 4.832939224605091 -1.1111404660392044 0
    endloop
  endfacet
  facet normal 0 0 -1
    outer loop
      vertex 4.93384252869671 0.9427934736519953 0
      vertex 4.93384252869671 -0.9427934736519953 0
      vertex 4.832939224605091 -1.1111404660392044 0
    endloop
  endfacet
  facet normal 0 0 -1
    outer loop
      vertex 4.93384252869671 0.9427934736519953 0
      vertex 5.017759065022574 0.7653668647301796 0
      vertex 4.93384252869671 -0.9427934736519953 0
    endloop
  endfacet
  facet normal 0 0 -1
    outer loop
      vertex 5.017759065022574 0.7653668647301796 0
      vertex 5.017759065022574 -0.7653668647301796 0
      vertex 4.93384252869671 -0.9427934736519953 0
    endloop
  endfacet
  facet normal 0 0 -1
    outer loop
      vertex 5.017759065022574 0.7653668647301796 0
      vertex 5.083880671464417 0.5805693545089247 0
      vertex 5.017759065022574 -0.7653668647301796 0
    endloop
  endfacet
  facet normal 0 0 -1
    outer loop
      vertex 5.083880671464417 0.5805693545089247 0
      vertex 5.083880671464417 -0.5805693545089247 0
      vertex 5.017759065022574 -0.7653668647301796 0
    endloop
  endfacet
  facet normal 0 0 -1
    outer loop
      vertex 5.083880671464417 0.5805693545089247 0
      vertex 5.131570560806461 0.3901806440322565 0
      vertex 5.083880671464417 -0.5805693545089247 0
    endloop
  endfacet
  facet normal 0 0 -1
    outer loop
      vertex 5.131570560806461 0.3901806440322565 0
      vertex 5.131570560806461 -0.3901806440322565 0
      vertex 5.083880671464417 -0.5805693545089247 0
    endloop
  endfacet
  facet normal 0 0 -1
    outer loop
      vertex 5.131570560806461 0.3901806440322565 0
      vertex 5.160369453344394 0.1960342806591212 0
      vertex 5.131570560806461 -0.3901806440322565 0
    endloop
  endfacet
  facet normal 0 0 -1
    outer loop
      vertex 5.160369453344394 0.1960342806591212 0
      vertex 5.160369453344394 -0.1960342806591212 0
      vertex 5.131570560806461 -0.3901806440322565 0
    endloop
  endfacet
  facet normal 0 0 -1
    outer loop
      vertex 5.160369453344394 0.1960342806591212 0
      vertex 5.17 0 0
      vertex 5.160369453344394 -0.1960342806591212 0
    endloop
  endfacet
endsolid OpenSCAD_Model
